<?xml version="1.0" encoding="UTF-8" standalone="no"?><!DOCTYPE svg PUBLIC "-//W3C//DTD SVG 1.1//EN" "http://www.w3.org/Graphics/SVG/1.1/DTD/svg11.dtd"><svg width="100%" height="100%" viewBox="0 0 83 59" version="1.1" xmlns="http://www.w3.org/2000/svg" xmlns:xlink="http://www.w3.org/1999/xlink" xml:space="preserve" xmlns:serif="http://www.serif.com/" style="fill-rule:evenodd;clip-rule:evenodd;stroke-linejoin:round;stroke-miterlimit:1.41421;"><rect id="Wortmarke_WB" x="0.076" y="0" width="82.041" height="58.703" style="fill:none;"/><path d="M81.932,3.462c0.261,-0.972 -0.09,-2.005 -0.888,-2.618c-0.799,-0.612 -1.887,-0.684 -2.759,-0.18c-8.763,5.059 -26.175,15.111 -32.959,19.029c-0.742,0.428 -1.284,1.134 -1.505,1.961c-0.222,0.828 -0.106,1.71 0.322,2.452c3.917,6.785 13.97,24.196 19.029,32.959c0.503,0.872 1.482,1.354 2.48,1.223c0.997,-0.131 1.818,-0.851 2.078,-1.823c3.288,-12.271 10.914,-40.732 14.202,-53.003Z" style="fill:#fff;"/><path d="M0.458,3.462c-0.261,-0.972 0.09,-2.005 0.889,-2.618c0.798,-0.612 1.887,-0.684 2.758,-0.18c8.763,5.059 26.175,15.111 32.959,19.029c0.742,0.428 1.284,1.134 1.506,1.961c0.221,0.828 0.105,1.71 -0.323,2.452c-3.917,6.785 -13.97,24.196 -19.029,32.959c-0.503,0.872 -1.482,1.354 -2.48,1.223c-0.997,-0.131 -1.818,-0.851 -2.078,-1.823c-3.288,-12.271 -10.914,-40.732 -14.202,-53.003Z" style="fill:#fff;"/></svg>