<?xml version="1.0" encoding="UTF-8" standalone="no"?><!DOCTYPE svg PUBLIC "-//W3C//DTD SVG 1.1//EN" "http://www.w3.org/Graphics/SVG/1.1/DTD/svg11.dtd"><svg width="100%" height="100%" viewBox="0 0 83 93" version="1.1" xmlns="http://www.w3.org/2000/svg" xmlns:xlink="http://www.w3.org/1999/xlink" xml:space="preserve" xmlns:serif="http://www.serif.com/" style="fill-rule:evenodd;clip-rule:evenodd;stroke-linejoin:round;stroke-miterlimit:1.41421;"><rect id="Portrait_RGB" x="0.03" y="0" width="81.995" height="92.747" style="fill:none;"/><path d="M81.783,3.239c0.26,-0.972 -0.09,-2.006 -0.889,-2.618c-0.798,-0.613 -1.887,-0.684 -2.758,-0.181c-8.763,5.059 -26.175,15.112 -32.96,19.029c-0.742,0.428 -1.283,1.134 -1.505,1.962c-0.222,0.827 -0.106,1.709 0.323,2.451c3.917,6.785 13.97,24.197 19.029,32.96c0.503,0.871 1.482,1.354 2.479,1.222c0.998,-0.131 1.818,-0.85 2.079,-1.822c3.288,-12.271 10.914,-40.733 14.202,-53.003Z" style="fill:url(#_Linear1);"/><path d="M0.308,3.239c-0.26,-0.972 0.091,-2.006 0.889,-2.618c0.798,-0.613 1.887,-0.684 2.759,-0.181c8.762,5.059 26.174,15.112 32.959,19.029c0.742,0.428 1.283,1.134 1.505,1.962c0.222,0.827 0.106,1.709 -0.323,2.451c-3.917,6.785 -13.969,24.197 -19.029,32.96c-0.503,0.871 -1.481,1.354 -2.479,1.222c-0.998,-0.131 -1.818,-0.85 -2.078,-1.822c-3.288,-12.271 -10.915,-40.733 -14.203,-53.003Z" style="fill:url(#_Linear2);"/><g><path d="M16.667,75.856l-1.622,0l-2.783,13.451l-3.144,-13.451l-1.362,0l-3.144,13.451l-2.783,-13.451l-1.622,0l3.645,16.684l1.421,0l3.164,-13.357l3.164,13.357l1.422,0l3.644,-16.684Z" style="fill:#999;fill-rule:nonzero;"/><path d="M28.282,84.198c0,-3.539 0,-5.179 -1.342,-6.749c-0.961,-1.125 -2.223,-1.734 -3.644,-1.734c-1.422,0 -2.684,0.609 -3.645,1.734c-1.342,1.57 -1.342,3.21 -1.342,6.749c0,3.538 0,5.179 1.342,6.749c0.961,1.125 2.223,1.734 3.645,1.734c1.421,0 2.683,-0.609 3.644,-1.734c1.342,-1.57 1.342,-3.211 1.342,-6.749Zm-1.522,0c0,3.492 -0.1,4.616 -1.001,5.694c-0.621,0.75 -1.522,1.195 -2.463,1.195c-0.942,0 -1.843,-0.445 -2.464,-1.195c-0.901,-1.078 -1.001,-2.202 -1.001,-5.694c0,-3.492 0.1,-4.617 1.001,-5.694c0.621,-0.75 1.522,-1.196 2.464,-1.196c0.941,0 1.842,0.446 2.463,1.196c0.901,1.077 1.001,2.202 1.001,5.694Z" style="fill:#999;fill-rule:nonzero;"/><path d="M41.838,92.54l-3.384,-7.569c1.842,-0.445 3.104,-2.038 3.104,-4.476c0,-2.882 -1.742,-4.639 -4.225,-4.639l-5.467,0l0,16.684l1.522,0l0,-7.405l3.424,0l3.244,7.405l1.782,0Zm-1.802,-12.021c0,2.039 -1.181,3.046 -2.843,3.046l-3.805,0l0,-6.116l3.805,0c1.662,0 2.843,1.031 2.843,3.07Z" style="fill:#999;fill-rule:nonzero;"/><path d="M54.894,84.01c0,-2.319 0.081,-4.874 -1.401,-6.608c-0.861,-1.008 -2.123,-1.546 -3.605,-1.546l-4.886,0l0,16.684l4.886,0c1.482,0 2.744,-0.539 3.605,-1.546c1.482,-1.734 1.401,-4.664 1.401,-6.984Zm-1.521,0c0,2.039 0.04,4.523 -0.942,5.718c-0.74,0.891 -1.702,1.219 -2.803,1.219l-3.104,0l0,-13.498l3.104,0c1.101,0 2.063,0.328 2.803,1.219c0.982,1.195 0.942,3.304 0.942,5.342Z" style="fill:#999;fill-rule:nonzero;"/><path d="M68.231,87.033l0,-11.177l-1.522,0l0,11.037c0,2.531 -1.382,4.194 -3.464,4.194c-2.083,0 -3.445,-1.663 -3.445,-4.194l0,-11.037l-1.521,0l0,11.177c0,3.328 2.082,5.648 4.966,5.648c2.883,0 4.986,-2.32 4.986,-5.648Z" style="fill:#999;fill-rule:nonzero;"/><path d="M81.868,80.753c0,-2.999 -1.803,-4.897 -4.406,-4.897l-5.306,0l0,16.684l1.522,0l0,-6.866l3.784,0c2.603,0 4.406,-1.921 4.406,-4.921Zm-1.522,0c0,2.203 -1.242,3.328 -3.024,3.328l-3.644,0l0,-6.632l3.644,0c1.782,0 3.024,1.101 3.024,3.304Z" style="fill:#999;fill-rule:nonzero;"/></g><defs><linearGradient id="_Linear1" x1="0" y1="0" x2="1" y2="0" gradientUnits="userSpaceOnUse" gradientTransform="matrix(-15.5816,53.4541,-53.4541,-15.5816,81.8677,4.63156)"><stop offset="0" style="stop-color:#a963ff;stop-opacity:1"/><stop offset="1" style="stop-color:#6800e8;stop-opacity:1"/></linearGradient><linearGradient id="_Linear2" x1="0" y1="0" x2="1" y2="0" gradientUnits="userSpaceOnUse" gradientTransform="matrix(-12.5051,-47.0334,47.0334,-12.5051,12.7121,52.0412)"><stop offset="0" style="stop-color:#637dff;stop-opacity:1"/><stop offset="1" style="stop-color:#0ffff7;stop-opacity:1"/></linearGradient></defs></svg>